<!DOCTYPE svg PUBLIC "-//W3C//DTD SVG 1.1//EN" "http://www.w3.org/Graphics/SVG/1.1/DTD/svg11.dtd">
<!-- Uploaded to: SVG Repo, www.svgrepo.com, Transformed by: SVG Repo Mixer Tools -->
<svg height="800px" width="800px" version="1.1" id="Capa_1" xmlns="http://www.w3.org/2000/svg" xmlns:xlink="http://www.w3.org/1999/xlink" viewBox="0 0 58 58" xml:space="preserve" fill="#000000">
<g id="SVGRepo_bgCarrier" stroke-width="0"/>
<g id="SVGRepo_tracerCarrier" stroke-linecap="round" stroke-linejoin="round"/>
<g id="SVGRepo_iconCarrier"> <g> <path style="fill:#1c97d4;" d="M53,7H5c-2.722,0-5,2.277-5,5v31c0,2.723,2.278,5,5,5h15l9,10l9-10h15c2.722,0,5-2.277,5-5V12 C58,9.277,55.722,7,53,7z"/> <path style="fill:#336ecc;" d="M51,7V3.793C51,1.728,49.272,0,47.207,0H10.793C8.728,0,7,1.728,7,3.793V7H51z"/> <circle style="fill:#FFFFFF;" cx="16" cy="27.985" r="3"/> <circle style="fill:#FFFFFF;" cx="29" cy="27.985" r="3"/> <circle style="fill:#FFFFFF;" cx="42" cy="27.985" r="3"/> </g> </g>
</svg>